<?xml version="1.0" encoding="utf-8"?>
<!-- Generator: Adobe Illustrator 22.1.0, SVG Export Plug-In . SVG Version: 6.00 Build 0)  -->
<svg version="1.1" id="Слой_1" xmlns="http://www.w3.org/2000/svg" xmlns:xlink="http://www.w3.org/1999/xlink" x="0px" y="0px"
	 width="364.5px" height="137px" viewBox="0 0 364.5 137" style="enable-background:new 0 0 364.5 137;" xml:space="preserve">
<style type="text/css">
	.st0{fill:#2A4B70;}
	.st1{clip-path:url(#SVGID_2_);fill:#2A4B70;}
	.st2{clip-path:url(#SVGID_4_);fill:#2A4B70;}
	.st3{clip-path:url(#SVGID_6_);fill:#E3A760;}
	.st4{fill:#E3A760;}
	.st5{clip-path:url(#SVGID_8_);fill:#E3A760;}
	.st6{clip-path:url(#SVGID_10_);fill:#E3A760;}
	.st7{clip-path:url(#SVGID_12_);fill:#E6AD49;}
	.st8{clip-path:url(#SVGID_12_);fill:#294A71;}
	.st9{clip-path:url(#SVGID_12_);fill:#2A4B70;}
</style>
<polygon class="st0" points="75.2,51.5 75.2,68.7 72.4,68.7 72.4,46.3 75.4,46.3 83.4,60.3 91.2,46.3 94.1,46.3 94.1,68.7 
	91.3,68.7 91.3,51.5 83.7,64.9 83,64.9 "/>
<polygon class="st0" points="97.2,46.3 108.4,46.3 108.4,48.7 100,48.7 100,55.7 107.8,55.7 107.8,58.1 100,58.1 100,66.3 
	108.7,66.3 108.7,68.7 97.2,68.7 "/>
<g>
	<defs>
		<rect id="SVGID_1_" y="43.5" width="364.5" height="50"/>
	</defs>
	<clipPath id="SVGID_2_">
		<use xlink:href="#SVGID_1_"  style="overflow:visible;"/>
	</clipPath>
	<path class="st1" d="M114.2,66.3h2.6c4.4,0,8.5-3,8.5-8.8c0-5.7-4.1-8.7-8.5-8.7h-2.6V66.3z M111.4,46.3h5.5
		c5.8,0,11.2,4.1,11.2,11.2c0,7.1-5.4,11.2-11.2,11.2h-5.5V46.3z"/>
</g>
<rect x="130.7" y="46.3" class="st0" width="2.8" height="22.4"/>
<polygon class="st0" points="140,48.8 135.4,48.8 135.4,46.3 147.4,46.3 147.4,48.8 142.8,48.8 142.8,68.7 140,68.7 "/>
<path class="st0" d="M161.2,61.7l-4.7-12.1l-4.8,12.1H161.2z M162.1,64h-11.3l-1.9,4.7h-2.8l9-22.4h2.8l9,22.4h-2.9L162.1,64z"/>
<polygon class="st0" points="169.9,48.8 165.2,48.8 165.2,46.3 177.3,46.3 177.3,48.8 172.6,48.8 172.6,68.7 169.9,68.7 "/>
<rect x="179.2" y="46.3" class="st0" width="2.8" height="22.4"/>
<g>
	<defs>
		<rect id="SVGID_3_" y="43.5" width="364.5" height="50"/>
	</defs>
	<clipPath id="SVGID_4_">
		<use xlink:href="#SVGID_3_"  style="overflow:visible;"/>
	</clipPath>
	<path class="st2" d="M187.2,57.5c0,5.1,4.2,9.5,9.4,9.5s9.4-4.3,9.4-9.5c0-4.9-4.2-9.3-9.4-9.3S187.2,52.5,187.2,57.5 M208.8,57.5
		c0,6.6-5.4,11.9-12.2,11.9c-6.8,0-12.2-5.3-12.2-11.9c0-6.6,5.4-11.9,12.2-11.9C203.4,45.6,208.8,50.9,208.8,57.5"/>
</g>
<polygon class="st0" points="214,50.8 214,68.7 211.3,68.7 211.3,46.3 214.2,46.3 226.7,64 226.7,46.3 229.4,46.3 229.4,68.7 
	226.7,68.7 "/>
<g>
	<defs>
		<rect id="SVGID_5_" y="43.5" width="364.5" height="50"/>
	</defs>
	<clipPath id="SVGID_6_">
		<use xlink:href="#SVGID_5_"  style="overflow:visible;"/>
	</clipPath>
	<path class="st3" d="M235.3,48.9v8.7h2.2c3.2,0,5.4-2,5.4-4.7c0-2-1.5-4-5.3-4H235.3z M235.4,60.1L235.4,60.1l-0.1,8.7h-2.8V46.3
		h4.8c5.4,0,8.3,2.7,8.3,6.6c0,3.9-2.9,6.4-6.9,7l7.8,8.8h-3.5L235.4,60.1z"/>
</g>
<polygon class="st4" points="248.7,46.3 259.9,46.3 259.9,48.7 251.5,48.7 251.5,55.7 259.3,55.7 259.3,58.1 251.5,58.1 251.5,66.3 
	260.2,66.3 260.2,68.7 248.7,68.7 "/>
<g>
	<defs>
		<rect id="SVGID_7_" y="43.5" width="364.5" height="50"/>
	</defs>
	<clipPath id="SVGID_8_">
		<use xlink:href="#SVGID_7_"  style="overflow:visible;"/>
	</clipPath>
	<path class="st5" d="M273.8,49.4c-1.1-0.6-2.8-1.1-4.4-1.1c-3,0-4,1.7-4,2.9c0,1.5,1.1,2.8,4.3,4.7c3.9,2.3,5.8,4.3,5.8,7
		c0,4-3.2,6.3-7.6,6.3c-1.7,0-4.3-0.5-5.5-1.2l0.1-2.7c1.5,1,3.5,1.6,5.6,1.6c3.1,0,4.6-2,4.6-3.8c0-1.7-1.3-3.1-4.7-5.1
		c-4-2.4-5.3-4.2-5.3-6.6c0-2.7,2-5.3,6.7-5.3c1.4,0,3.2,0.3,4.5,0.9L273.8,49.4z"/>
</g>
<polygon class="st4" points="278.1,46.3 289.3,46.3 289.3,48.7 280.9,48.7 280.9,55.7 288.7,55.7 288.7,58.1 280.9,58.1 280.9,66.3 
	289.6,66.3 289.6,68.7 278.1,68.7 "/>
<path class="st4" d="M306,61.7l-4.7-12.1l-4.8,12.1H306z M306.9,64h-11.3l-1.9,4.7h-2.9l9-22.4h2.8l9,22.4h-2.9L306.9,64z"/>
<g>
	<defs>
		<rect id="SVGID_9_" y="43.5" width="364.5" height="50"/>
	</defs>
	<clipPath id="SVGID_10_">
		<use xlink:href="#SVGID_9_"  style="overflow:visible;"/>
	</clipPath>
	<path class="st6" d="M316,48.9v8.7h2.2c3.1,0,5.4-2,5.4-4.7c0-2-1.5-4-5.3-4H316z M316.1,60.1L316.1,60.1l-0.1,8.7h-2.8V46.3h4.8
		c5.4,0,8.3,2.7,8.3,6.6c0,3.9-2.9,6.4-6.9,7l7.8,8.8h-3.5L316.1,60.1z"/>
	<path class="st6" d="M345.1,49.6c-1.5-0.9-3.2-1.5-5.1-1.5c-5.3,0-9.6,4.4-9.6,9.3c0,5,4.3,9.4,9.6,9.4c1.9,0,3.6-0.5,5.1-1.5v2.8
		c-1.6,0.8-3.3,1.2-5.2,1.2c-6.9,0-12.2-5.3-12.2-11.9c0-6.6,5.4-11.9,12.2-11.9c1.9,0,3.6,0.5,5.2,1.2V49.6z"/>
</g>
<polygon class="st4" points="361.6,46.3 361.6,55.6 350.5,55.6 350.5,46.3 347.7,46.3 347.7,68.7 350.5,68.7 350.5,58 361.6,58 
	361.6,68.7 364.4,68.7 364.4,46.3 "/>
<g>
	<defs>
		<rect id="SVGID_11_" y="43.5" width="364.5" height="50"/>
	</defs>
	<clipPath id="SVGID_12_">
		<use xlink:href="#SVGID_11_"  style="overflow:visible;"/>
	</clipPath>
	<path class="st7" d="M39.3,43.5c-1.9,0-3.9,0.6-5.6,1.8c-4.4,3.1-5.5,9.1-2.4,13.5c1.9,2.7,4.9,4.2,8,4.2c1.9,0,3.9-0.6,5.6-1.8
		c4.4-3.1,5.5-9.1,2.4-13.5C45.4,45,42.4,43.5,39.3,43.5"/>
	<path class="st8" d="M60.3,46.6c-1.4-4.7-8.8-3.7-7.7,1.3c2.6,12.2-2.7,26.2-15.7,29.7c-9.3,2.5-19-1.7-26-7.6
		c-6.1-5.2-14.4,4.3-9.3,10.2C25.8,108.1,70.2,81,60.3,46.6"/>
	<path class="st9" d="M363.1,83.6h-3.4c0.3-1.6,0.9-2.5,1.9-2.5C362.8,81.1,363.2,82,363.1,83.6 M364.5,83.7c0-2.3-1.1-3.7-3-3.7
		c-2,0-3.5,1.8-3.5,4.7c0,3.2,1.5,4.8,3.7,4.8c1.4,0,2.2-0.5,2.7-1v-1.3c-0.7,0.7-1.5,1.1-2.2,1.1c-2.1,0-2.7-1.7-2.6-3.6h4.8
		C364.5,84.4,364.5,84,364.5,83.7 M356.4,76.7h-1.6v12.6h1.6V76.7z M351.5,84.7c0,2.3-0.7,3.5-2,3.5s-2-1.2-2-3.5
		c0-2.3,0.7-3.5,2-3.5S351.5,82.4,351.5,84.7 M353.1,84.7c0-2.8-1.1-4.7-3.3-4.7c-1,0-1.8,0.6-2.2,1.3v-4.6H346v12.6h1.4l0-1.3
		c0.5,0.9,1.3,1.5,2.4,1.5C352,89.5,353.1,87.5,353.1,84.7 M343.9,80.2h-1.6v9.1h1.6V80.2z M343.9,76.7h-1.6v1.7h1.6V76.7z
		 M340.7,86.6c0-1.3-0.9-2.1-2.6-2.8c-0.9-0.3-1.4-0.7-1.4-1.5c0-0.7,0.4-1.2,1.4-1.2c0.7,0,1.4,0.2,2,0.7l0.3-1.2
		c-0.3-0.2-1.1-0.7-2.3-0.7c-1.9,0-2.9,1.1-2.9,2.5s0.8,2.2,2.4,2.8c1.1,0.4,1.7,0.8,1.7,1.6c0,0.9-0.6,1.4-1.6,1.4
		c-1,0-1.9-0.5-2.5-0.9l-0.3,1.2c0.3,0.1,1.2,0.9,2.8,0.9C339.4,89.5,340.7,88.5,340.7,86.6 M333.8,86.6c0-1.3-0.9-2.1-2.6-2.8
		c-0.9-0.3-1.4-0.7-1.4-1.5c0-0.7,0.4-1.2,1.4-1.2c0.7,0,1.4,0.2,2,0.7l0.3-1.2c-0.3-0.2-1.1-0.7-2.3-0.7c-1.9,0-2.9,1.1-2.9,2.5
		s0.8,2.2,2.4,2.8c1.1,0.4,1.7,0.8,1.7,1.6c0,0.9-0.6,1.4-1.6,1.4c-1,0-1.9-0.5-2.5-0.9l-0.3,1.2c0.3,0.1,1.2,0.9,2.8,0.9
		C332.5,89.5,333.8,88.5,333.8,86.6 M325.3,83.6h-3.4c0.3-1.6,0.9-2.5,1.9-2.5C324.9,81.1,325.4,82,325.3,83.6 M326.7,83.7
		c0-2.3-1-3.7-3-3.7c-2,0-3.5,1.8-3.5,4.7c0,3.2,1.5,4.8,3.7,4.8c1.4,0,2.2-0.5,2.7-1v-1.3c-0.7,0.7-1.5,1.1-2.2,1.1
		c-2.1,0-2.7-1.7-2.6-3.6h4.8C326.7,84.4,326.7,84,326.7,83.7 M319,88.7v-1.4c-0.6,0.5-1.2,0.8-1.8,0.8c-1.5,0-2.3-1.3-2.3-3.4
		c0-2.2,0.8-3.4,2.3-3.4c0.7,0,1.2,0.3,1.8,0.8v-1.4c-0.5-0.5-1.2-0.8-2.1-0.8c-2.2,0-3.6,1.8-3.6,4.7c0,3,1.4,4.7,3.6,4.7
		C317.8,89.4,318.4,89.2,319,88.7 M312,88.7v-1.4c-0.6,0.5-1.2,0.8-1.8,0.8c-1.5,0-2.3-1.3-2.3-3.4c0-2.2,0.8-3.4,2.3-3.4
		c0.7,0,1.2,0.3,1.8,0.8v-1.4c-0.5-0.5-1.2-0.8-2.1-0.8c-2.2,0-3.6,1.8-3.6,4.7c0,3,1.4,4.7,3.6,4.7C310.8,89.4,311.4,89.2,312,88.7
		 M299.1,84.7c0-2.3,0.7-3.5,2-3.5s2,1.2,2,3.5c0,2.3-0.7,3.5-2,3.5S299.1,87,299.1,84.7 M297.5,84.7c0,2.8,1.1,4.7,3.3,4.7
		c1.1,0,1.9-0.6,2.4-1.5l0,1.3h1.4v-9.1h-1.4l0,1.3c-0.5-0.9-1.3-1.5-2.4-1.5C298.6,80,297.5,82,297.5,84.7 M292.6,89.3v-6.1
		c0-1.8-0.7-3.2-2.6-3.2c-1,0-2.1,0.7-2.6,1.6l-0.1-1.4h-1.4v9.1h1.6v-6.2c0.2-0.9,1.1-1.8,2.1-1.8c1,0,1.5,0.5,1.5,2v6H292.6z
		 M282.7,84.7c0,2.3-0.8,3.5-2.1,3.5c-1.4,0-2.2-1.2-2.2-3.5c0-2.2,0.8-3.5,2.2-3.5C281.9,81.2,282.7,82.5,282.7,84.7 M284.3,84.7
		c0-3-1.5-4.8-3.7-4.8c-2.2,0-3.7,1.8-3.7,4.8c0,3,1.5,4.8,3.7,4.8C282.7,89.5,284.3,87.7,284.3,84.7 M275.2,80.2h-1.6v9.1h1.6V80.2
		z M275.2,76.7h-1.6v1.7h1.6V76.7z M272.2,81.2v-1h-1.4v-2.5h-1.6v2.5h-1.4v1h1.4v8h1.6v-8H272.2z M260.9,84.7c0-2.3,0.7-3.5,2-3.5
		s2,1.2,2,3.5c0,2.3-0.7,3.5-2,3.5S260.9,87,260.9,84.7 M259.3,84.7c0,2.8,1.1,4.7,3.3,4.7c1.1,0,1.9-0.6,2.4-1.5l0,1.3h1.4v-9.1
		H265l0,1.3c-0.5-0.9-1.3-1.5-2.4-1.5C260.4,80,259.3,82,259.3,84.7 M258.3,81.2v-1h-1.4v-2.5h-1.6v2.5h-1.4v1h1.4v8h1.6v-8H258.3z
		 M252.5,80.2h-1.6v9.1h1.6V80.2z M252.5,76.7h-1.6v1.7h1.6V76.7z M243.3,84.7c0-2.3,0.7-3.5,2-3.5s2,1.2,2,3.5c0,2.3-0.7,3.5-2,3.5
		S243.3,87,243.3,84.7 M241.7,84.7c0,2.8,1.1,4.7,3.3,4.7c1.1,0,1.9-0.6,2.4-1.5l0,1.3h1.4V76.7h-1.6v4.6c-0.4-0.7-1.2-1.3-2.2-1.3
		C242.8,80,241.7,82,241.7,84.7 M238.9,83.6h-3.4c0.3-1.6,0.9-2.5,1.9-2.5C238.5,81.1,239,82,238.9,83.6 M240.3,83.7
		c0-2.3-1.1-3.7-3-3.7c-2,0-3.5,1.8-3.5,4.7c0,3.2,1.5,4.8,3.7,4.8c1.4,0,2.2-0.5,2.7-1v-1.3c-0.7,0.7-1.5,1.1-2.2,1.1
		c-2.1,0-2.7-1.7-2.6-3.6h4.8C240.3,84.4,240.3,84,240.3,83.7 M232.2,89.3v-6.1c0-1.8-0.5-3.2-2.4-3.2c-0.9,0-1.9,0.5-2.6,1.6
		c-0.3-1-0.9-1.6-2.3-1.6c-1,0-2,0.7-2.5,1.6l-0.1-1.4h-1.4v9.1h1.6v-6.2c0.2-1,1-1.8,2-1.8c0.9,0,1.4,0.5,1.4,2v6h1.6v-6.2
		c0.2-1,1-1.8,2-1.8c1,0,1.4,0.5,1.4,2v6H232.2z M216.5,81.2v-1h-1.8v-0.9c0-1.3,0.3-1.7,1.1-1.7c0.2,0,0.5,0.1,0.7,0.1v-1
		c-0.2-0.1-0.7-0.1-1-0.1c-1.6,0-2.5,0.8-2.5,2.9v0.7h-1.4v1h1.4v8h1.6v-8H216.5z M209.5,84.7c0,2.3-0.8,3.5-2.1,3.5
		c-1.4,0-2.2-1.2-2.2-3.5c0-2.2,0.8-3.5,2.2-3.5C208.7,81.2,209.5,82.5,209.5,84.7 M211.1,84.7c0-3-1.5-4.8-3.7-4.8
		c-2.2,0-3.7,1.8-3.7,4.8c0,3,1.5,4.8,3.7,4.8C209.6,89.5,211.1,87.7,211.1,84.7 M197.7,83.6h-3.4c0.3-1.6,0.9-2.5,1.9-2.5
		C197.3,81.1,197.8,82,197.7,83.6 M199.1,83.7c0-2.3-1.1-3.7-3-3.7c-2,0-3.5,1.8-3.5,4.7c0,3.2,1.5,4.8,3.7,4.8c1.4,0,2.2-0.5,2.7-1
		v-1.3c-0.7,0.7-1.5,1.1-2.2,1.1c-2.1,0-2.7-1.7-2.6-3.6h4.8C199.1,84.4,199.1,84,199.1,83.7 M191.4,88.7v-1.4
		c-0.6,0.5-1.2,0.8-1.8,0.8c-1.5,0-2.3-1.3-2.3-3.4c0-2.2,0.8-3.4,2.3-3.4c0.7,0,1.2,0.3,1.8,0.8v-1.4c-0.5-0.5-1.2-0.8-2.1-0.8
		c-2.2,0-3.6,1.8-3.6,4.7c0,3,1.4,4.7,3.6,4.7C190.2,89.4,190.8,89.2,191.4,88.7 M184,89.3v-6.1c0-1.8-0.7-3.2-2.6-3.2
		c-1,0-2.1,0.7-2.6,1.6l-0.1-1.4h-1.4v9.1h1.6v-6.2c0.2-0.9,1.1-1.8,2.1-1.8c1,0,1.5,0.5,1.5,2v6H184z M174.1,83.6h-3.4
		c0.3-1.6,0.9-2.5,1.9-2.5C173.7,81.1,174.1,82,174.1,83.6 M175.5,83.7c0-2.3-1.1-3.7-3-3.7c-2,0-3.5,1.8-3.5,4.7
		c0,3.2,1.5,4.8,3.7,4.8c1.4,0,2.2-0.5,2.7-1v-1.3c-0.7,0.7-1.5,1.1-2.2,1.1c-2.1,0-2.7-1.7-2.6-3.6h4.8
		C175.4,84.4,175.5,84,175.5,83.7 M167.3,80.2h-1.6v9.1h1.6V80.2z M167.3,76.7h-1.6v1.7h1.6V76.7z M164.1,88.7v-1.4
		c-0.6,0.5-1.2,0.8-1.8,0.8c-1.5,0-2.3-1.3-2.3-3.4c0-2.2,0.8-3.4,2.3-3.4c0.7,0,1.2,0.3,1.8,0.8v-1.4c-0.5-0.5-1.2-0.8-2.1-0.8
		c-2.2,0-3.6,1.8-3.6,4.7c0,3,1.4,4.7,3.6,4.7C162.9,89.4,163.5,89.2,164.1,88.7 M157.1,86.6c0-1.3-0.9-2.1-2.6-2.8
		c-0.9-0.3-1.4-0.7-1.4-1.5c0-0.7,0.4-1.2,1.4-1.2c0.7,0,1.4,0.2,2,0.7l0.3-1.2c-0.3-0.2-1.1-0.7-2.3-0.7c-1.9,0-2.9,1.1-2.9,2.5
		s0.8,2.2,2.4,2.8c1.1,0.4,1.7,0.8,1.7,1.6c0,0.9-0.6,1.4-1.6,1.4c-1,0-1.9-0.5-2.5-0.9l-0.3,1.2c0.3,0.1,1.2,0.9,2.8,0.9
		C155.9,89.5,157.1,88.5,157.1,86.6 M145.4,83.6H142c0.3-1.6,0.9-2.5,1.9-2.5C145.1,81.1,145.5,82,145.4,83.6 M146.9,83.7
		c0-2.3-1.1-3.7-3-3.7c-2,0-3.5,1.8-3.5,4.7c0,3.2,1.5,4.8,3.7,4.8c1.4,0,2.2-0.5,2.7-1v-1.3c-0.7,0.7-1.5,1.1-2.2,1.1
		c-2.1,0-2.7-1.7-2.6-3.6h4.8C146.8,84.4,146.9,84,146.9,83.7 M138.7,89.3v-6.1c0-1.8-0.7-3.2-2.6-3.2c-0.9,0-2,0.6-2.5,1.4v-4.7
		H132v12.6h1.6v-6.2c0.2-0.9,1.1-1.8,2.1-1.8c1,0,1.5,0.5,1.5,2v6H138.7z M130.6,81.2v-1h-1.4v-2.5h-1.6v2.5h-1.4v1h1.4v8h1.6v-8
		H130.6z M116.1,84.7c0-2.3,0.7-3.5,2-3.5s2,1.2,2,3.5c0,2.3-0.7,3.5-2,3.5S116.1,87,116.1,84.7 M121.6,88.4v-8.3h-1.4l0,1.3
		c-0.5-0.9-1.3-1.6-2.4-1.6c-2.1,0-3.3,2-3.3,4.7c0,2.8,1.1,4.7,3.3,4.7c1,0,1.8-0.5,2.2-1.3V89c0,2.4-1,3.3-2.1,3.3
		c-1.1,0-1.8-0.3-2.9-1.1v1.4c0.8,0.6,1.9,0.9,2.9,0.9C119.6,93.5,121.6,92.7,121.6,88.4 M112.8,89.3v-6.1c0-1.8-0.7-3.2-2.6-3.2
		c-1,0-2.1,0.7-2.6,1.6l-0.1-1.4h-1.4v9.1h1.6v-6.2c0.2-0.9,1.1-1.8,2.1-1.8c1,0,1.5,0.5,1.5,2v6H112.8z M104,80.2h-1.6v9.1h1.6
		V80.2z M104,76.7h-1.6v1.7h1.6V76.7z M101.3,89.3l-3.3-5l3.2-4.1h-1.7l-3.1,4v-7.5h-1.6v12.6h1.6v-4.9l3.1,4.9H101.3z M87.3,84.7
		c0-2.3,0.7-3.5,2-3.5c1.3,0,2,1.2,2,3.5c0,2.3-0.7,3.5-2,3.5C88,88.3,87.3,87,87.3,84.7 M85.7,84.7c0,2.8,1.1,4.7,3.3,4.7
		c1.1,0,1.9-0.6,2.4-1.5l0,1.3h1.4v-9.1h-1.4l0,1.3C90.9,80.6,90,80,89,80C86.8,80,85.7,82,85.7,84.7 M84,89.3v-6.1
		c0-1.8-0.5-3.2-2.4-3.2c-0.9,0-1.9,0.5-2.6,1.6c-0.3-1-0.9-1.6-2.3-1.6c-1,0-2,0.7-2.5,1.6L74,80.2h-1.4v9.1h1.6v-6.2
		c0.2-1,1-1.8,2-1.8c0.9,0,1.4,0.5,1.4,2v6h1.6v-6.2c0.2-1,1-1.8,2-1.8c1,0,1.4,0.5,1.4,2v6H84z"/>
</g>
</svg>
