<svg xmlns="http://www.w3.org/2000/svg" width="377" height="103" fill="none" xmlns:v="https://vecta.io/nano"><g clip-path="url(#A)"><path d="M263.28 64.34l-12 16.72-15.52-21.59H225.4v41.9h10.36v-24.7l15.52 21.59 15.54-21.61v24.71h10.36v-41.9h-4.34a11.76 11.76 0 0 0-5.369 1.286c-1.662.849-3.099 2.081-4.191 3.594z" fill="#184186"/><g fill="#04a3bf"><path d="M58.69 17.21H47.28l9.56 25.83a13.3 13.3 0 0 0 12.44 8.69h2.48l12.77-34.52H73.07L65.89 39.1l-7.2-21.89zM216.2 47.42a17.7 17.7 0 0 1-5.955 3.984A17.69 17.69 0 0 1 203.2 52.7a17.71 17.71 0 0 1-7.046-1.298c-2.236-.908-4.262-2.263-5.954-3.982-1.734-1.684-3.101-3.708-4.016-5.945a17.58 17.58 0 0 1-1.304-7.055c-.031-2.404.432-4.788 1.361-7.006a17.55 17.55 0 0 1 4.039-5.884c1.692-1.719 3.719-3.074 5.954-3.982s4.633-1.349 7.046-1.298c2.412-.053 4.81.388 7.045 1.296a17.71 17.71 0 0 1 5.955 3.984 17.51 17.51 0 0 1 4.008 5.916 17.52 17.52 0 0 1 1.312 7.024 17.54 17.54 0 0 1-1.348 7.039c-.93 2.228-2.309 4.241-4.052 5.911zm-18.63-7.08a7.67 7.67 0 0 0 5.66 2.28 7.69 7.69 0 0 0 5.66-2.28c.76-.771 1.355-1.689 1.747-2.699a7.93 7.93 0 0 0 .533-3.171c.036-1.082-.147-2.16-.539-3.169a7.99 7.99 0 0 0-1.741-2.701c-.74-.743-1.624-1.327-2.597-1.718a7.7 7.7 0 0 0-3.063-.552 7.69 7.69 0 0 0-3.065.551 7.7 7.7 0 0 0-2.595 1.719 7.99 7.99 0 0 0-1.742 2.701c-.392 1.009-.575 2.087-.538 3.169a7.93 7.93 0 0 0 .532 3.171 7.92 7.92 0 0 0 1.748 2.699zm66.44-24.09a12.34 12.34 0 0 1 9.53 3.9c2.393 2.6 3.59 6.063 3.59 10.39v21.19h-3a7.35 7.35 0 0 1-7.35-7.34v-13a6.27 6.27 0 0 0-1.27-4.15 4.59 4.59 0 0 0-3.7-1.52 4.86 4.86 0 0 0-4 1.73 7.32 7.32 0 0 0-1.41 4.76v19.47h-10.36V31.39a6.27 6.27 0 0 0-1.27-4.15 4.59 4.59 0 0 0-3.7-1.52 4.86 4.86 0 0 0-4 1.73 7.32 7.32 0 0 0-1.41 4.76v19.47H225.3V17.16h10.36v3.18c1.886-2.76 4.97-4.14 9.25-4.14a10.16 10.16 0 0 1 9 4.55c2.18-2.993 5.546-4.493 10.1-4.5zm19.05 35.48V17.21h3a7.35 7.35 0 0 1 7.34 7.35v27.17h-10.34zm36.5-35.48a12.32 12.32 0 0 1 9.22 3.79c2.46 2.54 3.69 6 3.69 10.5v21.19h-3a7.34 7.34 0 0 1-7.34-7.34V32.06a6.15 6.15 0 0 0-.354-2.508 6.14 6.14 0 0 0-1.336-2.152 6.01 6.01 0 0 0-1.997-1.247 6 6 0 0 0-2.323-.383 6.18 6.18 0 0 0-4.69 1.8 7.39 7.39 0 0 0-1.73 5.31v18.85h-10.35V17.21h10.35v3.25c2.06-2.807 5.346-4.21 9.86-4.21zM39.4 47.29a22.36 22.36 0 0 1-16.34 6.65 22.35 22.35 0 0 1-16.34-6.65A22.17 22.17 0 0 1 0 30.88a22.16 22.16 0 0 1 6.72-16.4 22.32 22.32 0 0 1 16.34-6.66 22.33 22.33 0 0 1 16.34 6.66 22.16 22.16 0 0 1 6.72 16.4 22.17 22.17 0 0 1-6.72 16.41zm-25.56-6.91a12.58 12.58 0 0 0 9.22 3.68 12.56 12.56 0 0 0 9.21-3.68 12.74 12.74 0 0 0 3.71-9.5 12.77 12.77 0 0 0-3.71-9.5 12.55 12.55 0 0 0-9.21-3.67 12.58 12.58 0 0 0-9.22 3.67 12.8 12.8 0 0 0-3.7 9.5 12.77 12.77 0 0 0 3.7 9.5zm279.05-29.57a6 6 0 0 1-1.996 1.365 5.99 5.99 0 0 1-2.374.465 6 6 0 0 1-2.373-.465c-.751-.315-1.431-.779-1.997-1.365a6.01 6.01 0 0 1-1.357-1.993c-.313-.749-.47-1.555-.463-2.367a6.01 6.01 0 0 1 .461-2.372 6.02 6.02 0 0 1 1.359-1.998c.566-.586 1.246-1.05 1.997-1.365A6 6 0 0 1 288.52.25c.815-.008 1.622.151 2.374.465a6 6 0 0 1 1.996 1.365 6 6 0 0 1 1.36 1.998c.313.751.469 1.558.46 2.372a6.01 6.01 0 0 1-.462 2.367 6 6 0 0 1-1.358 1.993zm82.46 8.9a4.91 4.91 0 0 0-6.93 0l-.8.8c-.19.199-.364.413-.52.64a17.64 17.64 0 0 0-12.55-4.9 17.71 17.71 0 0 0-7.045 1.298 17.72 17.72 0 0 0-5.955 3.982 17.55 17.55 0 0 0-5.27 12.94 17.57 17.57 0 0 0 1.299 7.054 17.56 17.56 0 0 0 4.011 5.946 17.72 17.72 0 0 0 5.955 3.982 17.71 17.71 0 0 0 7.045 1.298 7.71 7.71 0 0 1 3.065.551 7.7 7.7 0 0 1 2.595 1.719 7.99 7.99 0 0 1 1.742 2.701c.392 1.009.575 2.087.538 3.169a7.93 7.93 0 0 1-.532 3.171 7.92 7.92 0 0 1-1.748 2.699c-.738.746-1.621 1.333-2.594 1.725a7.69 7.69 0 0 1-3.066.555 7.69 7.69 0 0 1-3.066-.555c-.973-.392-1.856-.979-2.594-1.725-.76-.771-1.355-1.689-1.747-2.699s-.574-2.089-.533-3.171h-10.37a17.57 17.57 0 0 0 1.299 7.054 17.56 17.56 0 0 0 4.011 5.946 17.73 17.73 0 0 0 5.956 3.981 17.72 17.72 0 0 0 7.044 1.299 17.73 17.73 0 0 0 7.045-1.299c2.236-.908 4.262-2.262 5.955-3.981a17.55 17.55 0 0 0 4.011-5.946c.914-2.237 1.356-4.638 1.299-7.054.05-2.406-.396-4.796-1.309-7.022a17.54 17.54 0 0 0-4.001-5.918l-.27-.24.27-.24a17.55 17.55 0 0 0 4.011-5.946c.914-2.237 1.356-4.638 1.299-7.054.01-1.925-.274-3.84-.84-5.68a4.82 4.82 0 0 0 2.55-1.35l.8-.8c.453-.458.81-1.001 1.052-1.598a4.9 4.9 0 0 0 .358-1.879c-.006-.644-.138-1.28-.391-1.873a4.89 4.89 0 0 0-1.079-1.58zm-26.46 20.63c-.76-.771-1.355-1.689-1.747-2.699s-.574-2.089-.533-3.171c-.037-1.082.147-2.16.538-3.169a8.01 8.01 0 0 1 1.742-2.701c.739-.744 1.623-1.329 2.596-1.719a7.7 7.7 0 0 1 3.064-.551 7.72 7.72 0 0 1 5.66 2.27 7.99 7.99 0 0 1 1.742 2.701c.392 1.009.575 2.087.538 3.169a7.93 7.93 0 0 1-.532 3.171 7.92 7.92 0 0 1-1.748 2.699c-.738.746-1.621 1.333-2.594 1.725a7.69 7.69 0 0 1-3.066.555 7.68 7.68 0 0 1-3.066-.553c-.973-.392-1.857-.98-2.594-1.727z"/></g><path d="M285.85 87.29a19.06 19.06 0 0 0 13.43 5.56c3.73 0 6-1.58 6-3.6 0-2.4-2.72-3.35-7.21-4.3-7-1.39-16.7-3.16-16.7-13.16 0-7.08 6-13.22 16.83-13.22 6.76 0 12.65 2 17.14 5.88l-6 7.78a19.65 19.65 0 0 0-11.89-4.36c-3.61 0-5 1.46-5 3.29 0 2.21 2.6 3 7.28 3.86 6.95 1.45 16.57 3.48 16.57 13 0 8.47-6.26 14.1-17.59 14.1-8.53 0-14.48-2.65-18.72-6.7l5.86-8.13z" fill="#184186"/><g fill="#04a3bf"><path d="M203.28 69.03a54.36 54.36 0 0 1 18.29 3.35 18.76 18.76 0 0 0-6.792-10.02c-3.309-2.498-7.352-3.831-11.498-3.79a18.77 18.77 0 0 0-11.501 3.789 18.78 18.78 0 0 0-6.799 10.021 54.46 54.46 0 0 1 18.3-3.35zM95.12 38.63c1.193 3.22 3.957 4.833 8.29 4.84 1.229.062 2.457-.141 3.6-.594a8.6 8.6 0 0 0 3.03-2.036l8.29 4.77c-3.414 4.74-8.434 7.11-15.06 7.11-5.814 0-10.454-1.727-13.92-5.18a17.61 17.61 0 0 1-5.22-13 17.78 17.78 0 0 1 5.15-13 17.77 17.77 0 0 1 13.23-5.22 16.62 16.62 0 0 1 6.822 1.273 16.63 16.63 0 0 1 5.708 3.947 18.01 18.01 0 0 1 5 13 20.2 20.2 0 0 1-.41 4.14l-24.51-.05zm-.21-7.74h14.85c-1.007-3.627-3.447-5.443-7.32-5.45-4.007 0-6.517 1.817-7.53 5.45zm40.17-7.52a8.48 8.48 0 0 1 3.91-5.08 12.21 12.21 0 0 1 6.45-1.76v11.74a10.39 10.39 0 0 0-7.08 1.28c-2.18 1.26-3.28 3.46-3.28 6.59v15.61h-10.36V17.22h10.36v6.15zm31.32 29.27a17.68 17.68 0 0 1-7.107-1.257 17.69 17.69 0 0 1-6.013-3.993c-1.709-1.697-3.054-3.726-3.951-5.961a17.68 17.68 0 0 1-1.269-7.039 17.71 17.71 0 0 1 1.269-7.038 17.7 17.7 0 0 1 3.951-5.962 17.68 17.68 0 0 1 6.015-3.982 17.67 17.67 0 0 1 7.105-1.248 18 18 0 0 1 9.15 2.42c2.695 1.516 4.927 3.735 6.46 6.42l-9.05 5.25c-1.24-2.58-3.48-3.87-6.7-3.87a7.49 7.49 0 0 0-3.031.538 7.5 7.5 0 0 0-2.559 1.712 7.86 7.86 0 0 0-1.702 2.657c-.381.992-.557 2.051-.518 3.113-.039 1.06.138 2.118.52 3.108a7.84 7.84 0 0 0 1.7 2.652 7.5 7.5 0 0 0 2.559 1.712 7.49 7.49 0 0 0 3.031.538c3.267 0 5.5-1.29 6.7-3.87l9.05 5.18a16.99 16.99 0 0 1-6.43 6.49c-2.783 1.627-5.956 2.467-9.18 2.43z"/></g></g><defs><clipPath id="A"><path fill="#fff" transform="translate(0 .25)" d="M0 0h376.79v101.9H0z"/></clipPath></defs></svg>